<svg width="91" height="73" viewBox="0 0 91 73" fill="none" xmlns="http://www.w3.org/2000/svg">
<g clip-path="url(#clip0_641_49)">
<path d="M43.5007 7.37763L55.2727 32.5253L58.5454 24.7746L47.0214 0.252741L46.9488 0.0902646L40.0586 0L42.9442 6.29445L33.846 24.3353L34.3299 25.575L43.5007 7.37763Z" fill="#F5F0E8"/>
<path d="M66.597 10.2004L59.731 10.1101L62.0903 16.3986L58.5514 24.7751L55.2787 32.5258L51.4979 41.4741L51.1168 42.3707L45.7813 55.0017L40.8148 42.2323L40.4639 41.3236L34.336 25.5755L33.852 24.3358L28.2262 9.86943L28.1536 9.6889L21.1968 9.59863L23.6468 15.8871L0 71.7849L7.39832 71.8812L7.29549 71.5141C6.10377 67.2657 5.06933 62.1868 7.83388 55.6938L24.1852 17.0725L29.9865 31.9903L30.4705 33.2359L33.5798 41.2334L33.9307 42.142L45.6906 72.3927L52.5626 72.483L46.3076 56.3015L46.3439 56.2654L52.1875 42.3888L52.5686 41.4921L55.8413 33.7234L58.0312 28.5181L59.108 25.9606L62.6347 17.5901L84.134 72.9102L91.0061 73.0005L66.597 10.2004Z" fill="#F5F0E8"/>
</g>
<defs>
<clipPath id="clip0_641_49">
<rect width="91" height="73" fill="white"/>
</clipPath>
</defs>
</svg>
