<svg width="174" height="60" viewBox="0 0 174 60" fill="none" xmlns="http://www.w3.org/2000/svg">
<g clip-path="url(#clip0_634_49)">
<path d="M62.382 0L63.4215 2.67241L56.725 19.2356L49.0177 0.0747126L48.989 0H46.037L47.111 2.67241L37.4051 26.6552H40.5408L40.4949 26.5C39.9665 24.6954 39.4956 22.5345 40.6327 19.7471L47.3465 3.17816L56.7825 26.6552H59.6942L56.949 19.7874L56.9662 19.7701L63.657 3.17816L73.093 26.6552H76.0105L65.2938 0H62.382Z" fill="#ffffff"/>
<path d="M84.0164 17.6264L91.0403 3.12644L98.0297 17.6264H84.0222H84.0164ZM92.4589 0H89.5356L90.7933 2.67241L79.2496 26.477L79.1635 26.6494H82.3165L82.2705 26.4943C81.6732 24.4483 81.5124 23.1954 82.6151 20.5287L83.8212 18.0115H98.2077L102.383 26.6494H105.341L92.4933 0.0689655L92.4589 0Z" fill="#ffffff"/>
<path d="M126.786 9.25287C126.711 14.9368 122.668 17.6437 118.694 17.8046C116.006 17.9138 113.347 16.9598 111.216 15.1092V0.385057H118.699C121.203 0.41954 123.259 1.20115 124.649 2.64368C126.137 4.18966 126.855 6.41379 126.786 9.24713M124.833 21.4253C124.437 20.8678 124.006 20.2701 123.535 19.6264L122.438 18.1092C126.757 16.977 129.37 13.6839 129.433 9.25862C129.45 6.63218 128.618 4.4023 127.021 2.79885C125.206 0.965517 122.513 0 119.228 0H108.563V26.6494H111.21V15.6782C113.215 17.3621 115.833 18.3621 118.625 18.5057H119.446L122.84 23.1264L125.694 26.6437H128.842L124.827 21.4138L124.833 21.4253Z" fill="#ffffff"/>
<path d="M136.595 0H133.93V26.6494H136.595V0Z" fill="#ffffff"/>
<path d="M118.717 42.6035C118.642 48.2874 114.599 50.9943 110.624 51.1552C107.937 51.2644 105.278 50.3104 103.147 48.4598V33.7356H110.63C113.134 33.7701 115.19 34.5517 116.58 35.9943C118.068 37.5402 118.785 39.7644 118.717 42.5977M116.764 54.7701C116.368 54.2127 115.937 53.615 115.466 52.9713L114.369 51.454C118.688 50.3219 121.301 47.0287 121.364 42.6035C121.381 39.977 120.549 37.7471 118.952 36.1437C117.137 34.3161 114.444 33.3506 111.159 33.3506H100.494V60H103.141V49.0287C105.145 50.7127 107.764 51.7127 110.556 51.8563H111.377L114.771 56.477L117.625 59.9943H120.773L116.758 54.7644L116.764 54.7701Z" fill="#ffffff"/>
<path d="M4.84721 50.977L11.8711 36.477L18.8605 50.977H4.84721ZM13.2896 33.3506H10.3664L11.6241 36.023L0.0861471 59.8276L0 60H3.15299L3.10704 59.8448C2.50975 57.7989 2.34895 56.546 3.45163 53.8793L4.65769 51.3621H19.0443L23.2195 60H26.1772L13.3241 33.4196L13.2896 33.3506Z" fill="#ffffff"/>
<path d="M54.3129 33.3506L55.3524 36.023L48.6559 52.5805L40.9486 33.4253L40.9199 33.3506H37.9679L39.0419 36.023L29.336 60.0058H32.4717L32.4258 59.8506C31.8974 58.046 31.4265 55.8851 32.5636 53.0977L39.2773 36.5287L48.7133 60.0058H51.6251L48.8799 53.1379L48.8971 53.1207L55.5879 36.5287L65.0239 60.0058H67.9414L57.2304 33.3563H54.3186L54.3129 33.3506Z" fill="#ffffff"/>
<path d="M75.9473 50.977L82.9712 36.477L89.9606 50.977H75.9531H75.9473ZM84.3897 33.3506H81.4665L82.7242 36.023L71.1805 59.8276L71.0944 60H74.2474L74.2014 59.8448C73.6041 57.7989 73.4433 56.546 74.546 53.8793L75.7521 51.3621H90.1386L94.3139 60H97.2716L84.4185 33.4196L84.384 33.3506H84.3897Z" fill="#ffffff"/>
<path d="M128.934 50.977L135.957 36.477L142.947 50.977H128.939H128.934ZM137.376 33.3506H134.453L135.71 36.023L124.167 59.8276L124.081 60H127.234L127.188 59.8448C126.59 57.7989 126.43 56.546 127.532 53.8793L128.738 51.3621H143.125L147.3 60H150.258L137.405 33.4196L137.37 33.3506H137.376Z" fill="#ffffff"/>
<path d="M173.719 57.3622C172.622 57.8737 170.738 58.3622 168.412 58.7358C164.989 59.299 160.636 59.6151 156.139 59.6208V33.3564H153.491V60.0059H172.869L174.011 57.2358L173.73 57.3679L173.719 57.3622Z" fill="#ffffff"/>
</g>
<defs>
<clipPath id="clip0_634_49">
<rect width="174" height="60" fill="white"/>
</clipPath>
</defs>
</svg>
